<svg width="122" height="74" viewBox="0 0 122 74" xmlns="http://www.w3.org/2000/svg"><title>5F856E8E-AD0D-4535-9F13-2E40639CC48D</title><g fill="none" fill-rule="evenodd"><path d="M69.883 63.45c-23.732 7.743-47.91 2.32-56.455-12.016.249 1.19.595 2.364 1.05 3.523 6.595 16.79 32.606 23.66 58.096 15.343 25.49-8.314 40.811-28.667 34.211-45.46a22.554 22.554 0 0 0-1.636-3.327c3.377 16.02-11.534 34.194-35.266 41.937z" fill="#CBD4D1" fill-rule="nonzero"/><path d="M48.516 10.549c23.608-8.026 47.662-3.371 56.161 10.242a19.954 19.954 0 0 0-1.045-3.368C97.07 1.393 71.197-4.61 45.839 4.007c-25.358 8.62-40.596 28.6-34.036 44.63a21.094 21.094 0 0 0 1.633 3.171c-3.36-15.361 11.472-33.233 35.08-41.26z" fill="#00757B" fill-rule="nonzero"/><g fill-rule="nonzero" fill="#111212"><path d="M.144 50.217l.243-.404c.747-1.24 1.126-2.64 1.126-4.16V22.497A7.69 7.69 0 0 0 .43 18.513l-.24-.402h8.42l-.275.413c-.1.151-.19.303-.264.453-.068.139-.218.487-.444 1.035-.3.913-.455 1.77-.455 2.531v23.11c0 1.27.267 2.456.792 3.524l.546 1.04H.144zM16.938 50.217l.313-.424c.736-.999 1.11-2.392 1.11-4.14V22.108a22.727 22.727 0 0 0-4.398.454 15.21 15.21 0 0 0-4.172 1.53l-.566.306 1.878-6.288h21.928l-1.606 5.403-.272-.11a18.544 18.544 0 0 0-5.226-1.298l-1.906-.114V45.61c0 1.695.349 3.108 1.036 4.2l.257.408h-8.376zM50.1 50.217l.062-.985c0-.955-.028-1.629-.082-1.985-.053-.35-.205-.871-.45-1.553l-2.104-5.783h-9.508L35.9 45.27c-.475 1.275-.717 2.453-.717 3.498v1.45h-8.287l.357-.435a23.066 23.066 0 0 0 1.92-2.709c.566-.935 1.11-2.037 1.62-3.277l9.22-22.364c.223-.629.366-1.037.425-1.212.052-.16.12-.405.21-.77l.175-.581.171-.758h4.686l.137.55.174.845c.11.504.222.92.335 1.237.114.317.198.548.255.692L54.77 43.5c.594 1.525 1.428 3.178 2.476 4.91l.43.7.749 1.107H50.1zM39.15 35.652l7.09-.005-3.336-10.334-3.754 10.339zM82.952 50.217l.306-.422c.379-.525.647-1.092.797-1.687.151-.604.228-1.43.228-2.459V28.133L74.854 39.7l-9.56-11.656v17.561c0 1.72.362 3.132 1.078 4.197l.278.415h-8.161l.289-.418c.712-1.028 1.073-2.438 1.073-4.19V21.536l-2.644-3.426h7.502l-.116.35a1.985 1.985 0 0 0-.115.617c0 .41.2.887.594 1.42l9.78 11.928 9.62-11.936c.607-.753.864-1.45.763-2.07l-.05-.309h7.191l-2.647 3.383v24.16c0 1.035.041 1.762.123 2.16.08.394.272.846.57 1.344l.767 1.06h-8.237zM109.134 50.66c-4.793 0-8.797-1.511-11.902-4.49-3.105-2.982-4.68-6.792-4.68-11.325 0-1.682.266-3.464.788-5.298.99-3.47 2.967-6.268 5.877-8.313 2.905-2.043 6.422-3.078 10.453-3.078 2.805 0 5.706.534 8.622 1.585l1.167.424v6.069l-.45-.43a22.17 22.17 0 0 0-2.982-2.36c-2.208-1.379-4.48-2.08-6.745-2.08-2.506 0-4.73.863-6.61 2.566-1.886 1.71-3.14 4.115-3.729 7.146-.255 1.266-.384 2.46-.384 3.55 0 3.602 1.085 6.593 3.225 8.891 2.137 2.29 4.86 3.45 8.098 3.45h1.266c.392-.085.675-.14.846-.17l2.27-.524.568-.166.129-.057v-7.94c0-.896-.254-1.953-.756-3.14l-.504-1.16h8.18l-.27.412a5.92 5.92 0 0 0-.742 1.64 7.343 7.343 0 0 0-.378 2.294v5.265c0 1.116.042 1.964.127 2.594a9.3 9.3 0 0 0 .503 1.96l.09.245-1.92.753a31.584 31.584 0 0 1-10.157 1.687z"/></g><path d="M1.339 54.41h.91v6.4h-.91v-6.4zm7.31 0v.762H6.41v5.637h-.915v-5.637h-2.24v-.762H8.65zm6.343 3.777l-1.01-2.827-1.073 2.827h2.083zm-1.48-3.777h1.018l2.413 6.4h-.987l-.674-1.917h-2.63l-.72 1.916h-.924l2.503-6.4zm4.725 4.936c.025.261.093.461.204.6.205.253.562.38 1.069.38.301 0 .567-.063.796-.19a.625.625 0 0 0 .344-.586c0-.2-.092-.352-.276-.457-.117-.064-.35-.138-.697-.222l-.647-.157c-.414-.099-.719-.21-.915-.331-.35-.212-.525-.505-.525-.88 0-.442.165-.799.496-1.072.33-.273.775-.41 1.333-.41.73 0 1.257.207 1.58.62.202.26.3.542.294.844h-.77a.888.888 0 0 0-.194-.483c-.187-.206-.512-.31-.973-.31-.308 0-.541.057-.7.17a.526.526 0 0 0-.237.45c0 .203.104.365.312.487.12.073.299.137.534.192l.539.126c.585.137.978.269 1.177.397.317.2.475.515.475.945 0 .415-.163.774-.49 1.076-.328.302-.827.453-1.497.453-.721 0-1.232-.158-1.533-.473a1.752 1.752 0 0 1-.482-1.17h.783zm4.736 0c.024.261.092.461.203.6.206.253.562.38 1.069.38.302 0 .567-.063.796-.19a.625.625 0 0 0 .345-.586c0-.2-.093-.352-.277-.457-.117-.064-.35-.138-.697-.222l-.647-.157c-.414-.099-.718-.21-.915-.331-.35-.212-.525-.505-.525-.88 0-.442.165-.799.496-1.072.33-.273.775-.41 1.333-.41.73 0 1.257.207 1.58.62.202.26.3.542.294.844h-.77a.888.888 0 0 0-.194-.483c-.187-.206-.511-.31-.973-.31-.308 0-.541.057-.7.17a.526.526 0 0 0-.237.45c0 .203.104.365.312.487.12.073.299.137.534.192l.539.126c.585.137.978.269 1.177.397.317.2.475.515.475.945 0 .415-.163.774-.49 1.076-.328.302-.827.453-1.497.453-.721 0-1.232-.158-1.532-.473a1.752 1.752 0 0 1-.483-1.17h.784zm7.27-3.074c.323.156.569.357.738.604.163.235.271.51.326.823.048.215.072.558.072 1.028h-3.554c.015.473.132.853.349 1.14.217.285.554.428 1.01.428.425 0 .765-.135 1.018-.405.145-.157.248-.338.308-.544h.801a1.584 1.584 0 0 1-.21.573c-.12.21-.253.382-.4.516-.248.232-.555.389-.92.47-.196.047-.418.07-.665.07a2.08 2.08 0 0 1-1.535-.634c-.42-.423-.63-1.014-.63-1.775 0-.75.212-1.358.634-1.825.423-.468.975-.702 1.657-.702.344 0 .678.078 1 .233zm.299 1.832c-.034-.34-.11-.611-.231-.815-.224-.377-.596-.566-1.118-.566-.375 0-.689.13-.942.39-.254.26-.388.59-.403.991h2.694zm2.1-3.263h.824v1.303h.774v.64h-.774v3.045c0 .163.057.272.172.327a.757.757 0 0 0 .317.048 3.969 3.969 0 0 0 .285-.013v.618c-.094.027-.19.045-.292.057-.101.012-.21.017-.328.017-.38 0-.639-.093-.774-.28-.136-.188-.204-.431-.204-.73v-3.089h-.656v-.64h.656V54.84zm5.274-.431h1.29l1.91 5.41 1.897-5.41h1.277v6.4h-.856v-3.778c0-.13.003-.347.01-.649.005-.302.008-.626.008-.971l-1.897 5.397h-.892l-1.91-5.397v.196c0 .157.004.396.011.717.008.32.012.556.012.707v3.777h-.86v-6.4zm8.619 5.694c.172.13.376.196.611.196.287 0 .564-.064.833-.192.453-.212.68-.56.68-1.041v-.632c-.1.061-.229.112-.386.153-.157.04-.31.07-.461.087l-.494.06c-.296.039-.518.098-.665.18-.25.136-.376.354-.376.653 0 .226.086.405.258.536zm1.716-2.122c.187-.023.312-.099.375-.226a.666.666 0 0 0 .055-.301c0-.267-.1-.461-.297-.582-.197-.12-.48-.18-.849-.18-.425 0-.727.11-.905.33-.1.123-.165.304-.195.545h-.76c.015-.575.209-.975.581-1.2.373-.225.806-.338 1.297-.338.57 0 1.034.105 1.39.314.353.21.53.534.53.976v2.688c0 .081.017.146.052.196.035.05.108.074.22.074a2.03 2.03 0 0 0 .267-.026v.58a2.345 2.345 0 0 1-.29.065 2.2 2.2 0 0 1-.272.013c-.28 0-.484-.096-.61-.288a1.08 1.08 0 0 1-.141-.431c-.166.209-.405.39-.715.544-.311.154-.654.231-1.028.231-.45 0-.817-.131-1.102-.394a1.286 1.286 0 0 1-.428-.987c0-.432.14-.768.42-1.006.281-.238.65-.385 1.105-.44l1.3-.157zm2.657-1.838h.774v.662c.23-.273.472-.47.729-.588.256-.12.542-.179.855-.179.689 0 1.153.231 1.395.693.133.252.199.614.199 1.085v2.992h-.829v-2.94c0-.285-.043-.514-.13-.688-.146-.29-.408-.436-.789-.436-.193 0-.351.019-.475.057-.223.063-.42.191-.588.383a1.14 1.14 0 0 0-.265.477c-.041.164-.061.399-.061.703v2.444h-.815v-4.665zm6.138 3.96c.172.13.376.196.611.196.287 0 .565-.064.833-.192.453-.212.68-.56.68-1.041v-.632c-.1.061-.228.112-.385.153-.157.04-.311.07-.462.087l-.494.06c-.295.039-.517.098-.665.18-.25.136-.376.354-.376.653 0 .226.086.405.258.536zm1.716-2.122c.187-.023.312-.099.376-.226a.666.666 0 0 0 .054-.301c0-.267-.099-.461-.296-.582-.198-.12-.481-.18-.85-.18-.425 0-.727.11-.905.33-.1.123-.164.304-.194.545h-.76c.014-.575.208-.975.58-1.2.374-.225.806-.338 1.298-.338.57 0 1.034.105 1.39.314.353.21.53.534.53.976v2.688c0 .081.017.146.051.196.035.05.108.074.22.074a2.03 2.03 0 0 0 .267-.026v.58a2.345 2.345 0 0 1-.29.065 2.2 2.2 0 0 1-.271.013c-.28 0-.485-.096-.611-.288a1.08 1.08 0 0 1-.14-.431c-.167.209-.405.39-.716.544-.31.154-.653.231-1.028.231-.45 0-.817-.131-1.102-.394a1.286 1.286 0 0 1-.428-.987c0-.432.14-.768.421-1.006.28-.238.649-.385 1.105-.44l1.3-.157zm5.364-1.651c.154.102.311.25.471.444v-.588h.752v4.243c0 .593-.09 1.06-.272 1.403-.338.633-.976.95-1.915.95-.522 0-.961-.113-1.317-.338-.356-.225-.556-.577-.598-1.056h.829c.039.209.117.37.235.483.184.175.474.262.87.262.624 0 1.033-.212 1.226-.636.115-.25.168-.696.159-1.338-.163.238-.36.416-.589.532-.23.116-.533.174-.91.174-.525 0-.985-.18-1.378-.538-.394-.359-.591-.952-.591-1.78 0-.78.198-1.39.595-1.83.397-.438.876-.657 1.437-.657.38 0 .713.09.996.27zm.1.84a1.209 1.209 0 0 0-.946-.417c-.574 0-.966.258-1.177.775-.112.276-.168.638-.168 1.085 0 .525.111.925.333 1.2.222.274.52.412.894.412.586 0 .998-.254 1.236-.763.133-.287.2-.623.2-1.006 0-.578-.125-1.006-.372-1.285zm5.468-.899c.323.156.57.357.738.604.163.235.272.51.326.823.049.215.073.558.073 1.028h-3.554c.015.473.131.853.349 1.14.217.285.553.428 1.01.428.425 0 .764-.135 1.018-.405.145-.157.247-.338.308-.544h.8a1.584 1.584 0 0 1-.21.573c-.119.21-.252.382-.4.516-.248.232-.554.389-.92.47-.195.047-.417.07-.665.07a2.08 2.08 0 0 1-1.534-.634c-.42-.423-.63-1.014-.63-1.775 0-.75.212-1.358.634-1.825.423-.468.975-.702 1.657-.702.344 0 .678.078 1 .233zm.3 1.832c-.034-.34-.11-.611-.232-.815-.223-.377-.596-.566-1.118-.566-.374 0-.688.13-.941.39-.254.26-.388.59-.403.991h2.693zm1.937-1.96h.805v.662c.194-.23.369-.397.526-.501.268-.177.573-.266.914-.266.386 0 .697.092.933.275.132.104.253.258.362.461a1.74 1.74 0 0 1 .638-.555c.245-.12.52-.18.824-.18.652 0 1.096.226 1.331.679.127.244.19.572.19.984v3.106h-.846v-3.24c0-.312-.081-.525-.243-.641a.985.985 0 0 0-.59-.174c-.32 0-.596.103-.827.309-.23.206-.346.55-.346 1.032v2.714h-.828v-3.045c0-.316-.04-.547-.118-.692-.124-.218-.355-.327-.693-.327-.308 0-.587.115-.84.344-.251.23-.377.645-.377 1.246v2.474h-.815v-4.665zm10.842.128c.323.156.569.357.738.604.163.235.271.51.326.823.048.215.072.558.072 1.028h-3.554c.015.473.132.853.349 1.14.217.285.554.428 1.01.428.425 0 .765-.135 1.018-.405.145-.157.248-.338.308-.544h.801a1.584 1.584 0 0 1-.21.573c-.12.21-.253.382-.401.516-.247.232-.554.389-.919.47-.196.047-.418.07-.665.07a2.08 2.08 0 0 1-1.535-.634c-.42-.423-.63-1.014-.63-1.775 0-.75.212-1.358.634-1.825.423-.468.975-.702 1.657-.702.344 0 .678.078 1 .233zm.299 1.832c-.034-.34-.11-.611-.231-.815-.224-.377-.596-.566-1.119-.566-.374 0-.688.13-.941.39-.254.26-.388.59-.403.991h2.694zm1.937-1.96h.774v.662c.23-.273.472-.47.729-.588.256-.12.542-.179.856-.179.688 0 1.152.231 1.394.693.133.252.2.614.2 1.085v2.992h-.83v-2.94c0-.285-.043-.514-.13-.688-.146-.29-.408-.436-.788-.436-.194 0-.352.019-.476.057-.223.063-.42.191-.588.383a1.14 1.14 0 0 0-.265.477c-.04.164-.061.399-.061.703v2.444h-.815v-4.665zm5.419-1.303h.824v1.303h.774v.64h-.774v3.045c0 .163.057.272.172.327a.757.757 0 0 0 .316.048 3.969 3.969 0 0 0 .286-.013v.618c-.094.027-.191.045-.292.057-.101.012-.21.017-.329.017-.38 0-.638-.093-.774-.28-.135-.188-.203-.431-.203-.73v-3.089h-.657v-.64h.657V54.84zm9.791-.248c.661.334 1.066.919 1.213 1.755h-.891c-.109-.467-.334-.808-.675-1.021-.34-.214-.771-.32-1.29-.32-.616 0-1.134.222-1.555.666-.421.445-.632 1.107-.632 1.987 0 .76.174 1.38.52 1.858.348.477.914.716 1.699.716.6 0 1.097-.167 1.491-.503.394-.335.596-.878.605-1.627H98.62v-.719h2.92v3.424h-.58l-.217-.823c-.304.322-.575.546-.81.67-.395.216-.898.323-1.508.323-.787 0-1.465-.245-2.032-.736-.619-.616-.928-1.46-.928-2.535 0-1.072.302-1.924.905-2.558.574-.604 1.316-.906 2.228-.906.624 0 1.164.117 1.62.349zm2.73 1.55h.774v.807c.063-.157.219-.348.466-.573a1.234 1.234 0 0 1 .933-.333c.036.002.098.008.185.017v.828a1.262 1.262 0 0 0-.267-.022c-.41 0-.726.127-.946.381a1.3 1.3 0 0 0-.33.878v2.683h-.815v-4.665zm6.2 3.57c.2-.393.3-.83.3-1.313 0-.435-.072-.79-.217-1.063-.23-.43-.625-.644-1.186-.644-.498 0-.86.183-1.086.549-.227.365-.34.807-.34 1.324 0 .496.113.91.34 1.241.226.331.585.497 1.077.497.54 0 .91-.197 1.111-.59zm.504-3.103c.432.4.648.99.648 1.769 0 .752-.19 1.373-.57 1.864-.381.49-.971.736-1.771.736-.667 0-1.197-.217-1.589-.651-.392-.434-.588-1.017-.588-1.75 0-.783.206-1.408.62-1.872.413-.465.969-.697 1.666-.697.624 0 1.153.2 1.584.6zm2.53-.466v3.097c0 .238.04.433.118.584.145.279.415.418.81.418.568 0 .954-.244 1.16-.732.111-.261.167-.62.167-1.076v-2.291h.815v4.665h-.77l.01-.688a1.599 1.599 0 0 1-.394.449c-.311.244-.689.366-1.132.366-.691 0-1.162-.222-1.413-.667-.136-.238-.203-.556-.203-.954v-3.171h.833zm7.436 3.679c.252-.307.378-.765.378-1.375 0-.372-.056-.691-.167-.958-.212-.514-.598-.771-1.16-.771-.564 0-.95.271-1.158.814-.112.29-.168.66-.168 1.107 0 .36.056.666.168.92.211.481.597.722 1.159.722.38 0 .696-.153.948-.46zm-3.058-3.658h.792v.62c.163-.213.341-.377.534-.493a1.77 1.77 0 0 1 .97-.262c.549 0 1.015.203 1.398.608.383.405.575.984.575 1.736 0 1.017-.276 1.743-.828 2.178-.35.276-.758.414-1.223.414-.365 0-.671-.077-.919-.23-.145-.088-.306-.237-.484-.45v2.384h-.815v-6.505z" fill="#111212"/></g></svg>